<?xml version="1.0" encoding="utf-8"?>
<svg version="1.1" width="226.7717px" height="141.7323px" preserveAspectRatio="none" viewBox="0 0 226.7717 141.7323" xmlns="http://www.w3.org/2000/svg">
  <defs>
    <clipPath id="clippath0" transform="">
      <path d="M 50.6089 131.8388 C 49.8464 131.8388 49.2282 131.2206 49.2282 130.458 C 49.2282 129.6955 49.8464 129.0776 50.6089 129.0776 C 51.3711 129.0776 51.9894 129.6955 51.9894 130.458 C 51.9894 131.2206 51.3711 131.8388 50.6089 131.8388 Z M 43.3806 127.8995 C 42.0693 127.8995 41.0066 126.8368 41.0066 125.5255 C 41.0066 124.2142 42.0693 123.1515 43.3806 123.1515 C 44.6916 123.1515 45.7546 124.2142 45.7546 125.5255 C 45.7546 126.8368 44.6916 127.8995 43.3806 127.8995 Z M 35.4535 120.7797 C 33.5001 120.7797 31.917 119.1966 31.917 117.2432 C 31.917 115.2899 33.5001 113.7064 35.4535 113.7064 C 37.4068 113.7064 38.9903 115.2899 38.9903 117.2432 C 38.9903 119.1966 37.4068 120.7797 35.4535 120.7797 Z M 28.8147 109.8913 C 26.1927 109.8913 24.0678 107.7661 24.0678 105.1444 C 24.0678 102.5226 26.1927 100.3975 28.8147 100.3975 C 31.4365 100.3975 33.5614 102.5226 33.5614 105.1444 C 33.5614 107.7661 31.4365 109.8913 28.8147 109.8913 Z M 24.0367 94.3486 C 20.7808 94.3486 18.1423 91.7101 18.1423 88.4543 C 18.1423 85.1987 20.7808 82.5602 24.0367 82.5602 C 27.2923 82.5602 29.9307 85.1987 29.9307 88.4543 C 29.9307 91.7101 27.2923 94.3486 24.0367 94.3486 Z M 22.5164 75.5493 C 19.8947 75.5493 17.7695 73.4244 17.7695 70.8026 C 17.7695 68.1809 19.8947 66.0557 22.5164 66.0557 C 25.1382 66.0557 27.2631 68.1809 27.2631 70.8026 C 27.2631 73.4244 25.1382 75.5493 22.5164 75.5493 Z M 24.4397 60.5032 C 22.4864 60.5032 20.903 58.9201 20.903 56.9667 C 20.903 55.0134 22.4864 53.4302 24.4397 53.4302 C 26.3931 53.4302 27.9763 55.0134 27.9763 56.9667 C 27.9763 58.9201 26.3931 60.5032 24.4397 60.5032 Z M 28.891 48.9172 C 27.5797 48.9172 26.517 47.8542 26.517 46.5432 C 26.517 45.2319 27.5797 44.1692 28.891 44.1692 C 30.202 44.1692 31.2647 45.2319 31.2647 46.5432 C 31.2647 47.8542 30.202 48.9172 28.891 48.9172 Z M 34.0877 40.6332 C 33.3252 40.6332 32.7073 40.0153 32.7073 39.2528 C 32.7073 38.4902 33.3252 37.8723 34.0877 37.8723 C 34.8503 37.8723 35.4682 38.4902 35.4682 39.2528 C 35.4682 40.0153 34.8503 40.6332 34.0877 40.6332" style="fill: none; clip-rule: evenodd;"/>
    </clipPath>
    <linearGradient id="shading0" gradientUnits="userSpaceOnUse" x1="32.38" y1="-12.61" x2="38.46" y2="145.02">
      <stop offset="0" style="stop-color: rgb(20, 107, 150);"/>
      <stop offset="0.1" style="stop-color: rgb(29, 116, 153);"/>
      <stop offset="0.2" style="stop-color: rgb(38, 125, 156);"/>
      <stop offset="0.3" style="stop-color: rgb(48, 135, 159);"/>
      <stop offset="0.4" style="stop-color: rgb(58, 145, 163);"/>
      <stop offset="0.5" style="stop-color: rgb(68, 155, 166);"/>
      <stop offset="0.6" style="stop-color: rgb(78, 166, 169);"/>
      <stop offset="0.7" style="stop-color: rgb(89, 177, 172);"/>
      <stop offset="0.8" style="stop-color: rgb(100, 188, 174);"/>
      <stop offset="0.9" style="stop-color: rgb(111, 199, 177);"/>
      <stop offset="1" style="stop-color: rgb(123, 210, 180);"/>
    </linearGradient>
    <clipPath id="clippath1" transform="">
      <path d="M 13.335 95.8337 C 12.7188 95.3847 12.5833 94.5213 13.0323 93.905 C 13.481 93.2888 14.3447 93.1533 14.961 93.6023 C 15.5772 94.0513 15.7127 94.9147 15.2637 95.531 C 14.8147 96.1472 13.9513 96.2827 13.335 95.8337 Z M 9.8124 88.3936 C 8.7528 87.6214 8.5195 86.1367 9.2917 85.0768 C 10.0638 84.0172 11.5486 83.7839 12.6085 84.5561 C 13.6681 85.3282 13.9014 86.813 13.1292 87.8729 C 12.3571 88.9325 10.8723 89.1658 9.8124 88.3936 Z M 7.5983 77.9712 C 6.0194 76.8209 5.6721 74.609 6.8224 73.0301 C 7.9727 71.4515 10.1846 71.104 11.7635 72.2543 C 13.3421 73.4046 13.6894 75.6167 12.5393 77.1953 C 11.389 78.7742 9.1769 79.1215 7.5983 77.9712 Z M 8.6443 65.2612 C 6.5254 63.7174 6.0591 60.7487 7.6031 58.6295 C 9.1468 56.5106 12.1158 56.0443 14.2347 57.5884 C 16.3539 59.1321 16.8199 62.1009 15.2762 64.22 C 13.7322 66.3392 10.7634 66.8052 8.6443 65.2612 Z M 13.9348 49.8858 C 11.3034 47.9687 10.7246 44.2823 12.642 41.6509 C 14.559 39.0195 18.2455 38.4406 20.8769 40.3577 C 23.5083 42.2751 24.0871 45.9612 22.1698 48.5926 C 20.2527 51.224 16.5662 51.8029 13.9348 49.8858 Z M 23.7764 33.7963 C 21.6575 32.2523 21.1912 29.2836 22.7353 27.1647 C 24.279 25.0455 27.2477 24.5795 29.3669 26.1232 C 31.4861 27.6673 31.9521 30.636 30.4084 32.7552 C 28.8643 34.8741 25.8956 35.3404 23.7764 33.7963 Z M 34.1909 22.7682 C 32.6123 21.6179 32.2648 19.406 33.4151 17.8271 C 34.5654 16.2485 36.7775 15.9012 38.3562 17.0515 C 39.9351 18.2015 40.2823 20.4137 39.132 21.9923 C 37.9817 23.5712 35.7698 23.9185 34.1909 22.7682 Z M 44.6114 16.0251 C 43.5515 15.2529 43.3185 13.7682 44.0906 12.7083 C 44.8628 11.6484 46.3476 11.4154 47.4072 12.1876 C 48.4671 12.9597 48.7001 14.4445 47.9279 15.5041 C 47.156 16.564 45.6712 16.7973 44.6114 16.0251 Z M 53.6896 12.39 C 53.0734 11.9409 52.9379 11.0775 53.3869 10.4613 C 53.8359 9.845 54.6993 9.7095 55.3156 10.1585 C 55.9318 10.6075 56.0673 11.471 55.6183 12.0872 C 55.1693 12.7035 54.3059 12.839 53.6896 12.39" style="fill: none; clip-rule: evenodd;"/>
    </clipPath>
    <linearGradient id="shading1" gradientUnits="userSpaceOnUse" x1="83.66" y1="-31.64" x2="-4.24" y2="99.33">
      <stop offset="0" style="stop-color: rgb(20, 107, 150);"/>
      <stop offset="0.1" style="stop-color: rgb(29, 116, 153);"/>
      <stop offset="0.2" style="stop-color: rgb(38, 125, 156);"/>
      <stop offset="0.3" style="stop-color: rgb(48, 135, 159);"/>
      <stop offset="0.4" style="stop-color: rgb(58, 145, 163);"/>
      <stop offset="0.5" style="stop-color: rgb(68, 155, 166);"/>
      <stop offset="0.6" style="stop-color: rgb(78, 166, 169);"/>
      <stop offset="0.7" style="stop-color: rgb(89, 177, 172);"/>
      <stop offset="0.8" style="stop-color: rgb(100, 188, 174);"/>
      <stop offset="0.9" style="stop-color: rgb(111, 199, 177);"/>
      <stop offset="1" style="stop-color: rgb(123, 210, 180);"/>
    </linearGradient>
  </defs>
  <g transform="matrix(1 0 0 -1 0 141.7323)">
    <g transform="">
      <path d="M 50.6089 131.8388 C 49.8464 131.8388 49.2282 131.2206 49.2282 130.458 C 49.2282 129.6955 49.8464 129.0776 50.6089 129.0776 C 51.3711 129.0776 51.9894 129.6955 51.9894 130.458 C 51.9894 131.2206 51.3711 131.8388 50.6089 131.8388 Z M 43.3806 127.8995 C 42.0693 127.8995 41.0066 126.8368 41.0066 125.5255 C 41.0066 124.2142 42.0693 123.1515 43.3806 123.1515 C 44.6916 123.1515 45.7546 124.2142 45.7546 125.5255 C 45.7546 126.8368 44.6916 127.8995 43.3806 127.8995 Z M 35.4535 120.7797 C 33.5001 120.7797 31.917 119.1966 31.917 117.2432 C 31.917 115.2899 33.5001 113.7064 35.4535 113.7064 C 37.4068 113.7064 38.9903 115.2899 38.9903 117.2432 C 38.9903 119.1966 37.4068 120.7797 35.4535 120.7797 Z M 28.8147 109.8913 C 26.1927 109.8913 24.0678 107.7661 24.0678 105.1444 C 24.0678 102.5226 26.1927 100.3975 28.8147 100.3975 C 31.4365 100.3975 33.5614 102.5226 33.5614 105.1444 C 33.5614 107.7661 31.4365 109.8913 28.8147 109.8913 Z M 24.0367 94.3486 C 20.7808 94.3486 18.1423 91.7101 18.1423 88.4543 C 18.1423 85.1987 20.7808 82.5602 24.0367 82.5602 C 27.2923 82.5602 29.9307 85.1987 29.9307 88.4543 C 29.9307 91.7101 27.2923 94.3486 24.0367 94.3486 Z M 22.5164 75.5493 C 19.8947 75.5493 17.7695 73.4244 17.7695 70.8026 C 17.7695 68.1809 19.8947 66.0557 22.5164 66.0557 C 25.1382 66.0557 27.2631 68.1809 27.2631 70.8026 C 27.2631 73.4244 25.1382 75.5493 22.5164 75.5493 Z M 24.4397 60.5032 C 22.4864 60.5032 20.903 58.9201 20.903 56.9667 C 20.903 55.0134 22.4864 53.4302 24.4397 53.4302 C 26.3931 53.4302 27.9763 55.0134 27.9763 56.9667 C 27.9763 58.9201 26.3931 60.5032 24.4397 60.5032 Z M 28.891 48.9172 C 27.5797 48.9172 26.517 47.8542 26.517 46.5432 C 26.517 45.2319 27.5797 44.1692 28.891 44.1692 C 30.202 44.1692 31.2647 45.2319 31.2647 46.5432 C 31.2647 47.8542 30.202 48.9172 28.891 48.9172 Z M 34.0877 40.6332 C 33.3252 40.6332 32.7073 40.0153 32.7073 39.2528 C 32.7073 38.4902 33.3252 37.8723 34.0877 37.8723 C 34.8503 37.8723 35.4682 38.4902 35.4682 39.2528 C 35.4682 40.0153 34.8503 40.6332 34.0877 40.6332" style="fill: none;"/>
    </g>
    <g style="clip-path: url(#clippath0);">
      <g transform="">
        <rect x="0" y="0" width="226.7717" height="141.7323" style="fill: url(#shading0);"/>
      </g>
    </g>
    <g transform="">
      <path d="M 13.335 95.8337 C 12.7188 95.3847 12.5833 94.5213 13.0323 93.905 C 13.481 93.2888 14.3447 93.1533 14.961 93.6023 C 15.5772 94.0513 15.7127 94.9147 15.2637 95.531 C 14.8147 96.1472 13.9513 96.2827 13.335 95.8337 Z M 9.8124 88.3936 C 8.7528 87.6214 8.5195 86.1367 9.2917 85.0768 C 10.0638 84.0172 11.5486 83.7839 12.6085 84.5561 C 13.6681 85.3282 13.9014 86.813 13.1292 87.8729 C 12.3571 88.9325 10.8723 89.1658 9.8124 88.3936 Z M 7.5983 77.9712 C 6.0194 76.8209 5.6721 74.609 6.8224 73.0301 C 7.9727 71.4515 10.1846 71.104 11.7635 72.2543 C 13.3421 73.4046 13.6894 75.6167 12.5393 77.1953 C 11.389 78.7742 9.1769 79.1215 7.5983 77.9712 Z M 8.6443 65.2612 C 6.5254 63.7174 6.0591 60.7487 7.6031 58.6295 C 9.1468 56.5106 12.1158 56.0443 14.2347 57.5884 C 16.3539 59.1321 16.8199 62.1009 15.2762 64.22 C 13.7322 66.3392 10.7634 66.8052 8.6443 65.2612 Z M 13.9348 49.8858 C 11.3034 47.9687 10.7246 44.2823 12.642 41.6509 C 14.559 39.0195 18.2455 38.4406 20.8769 40.3577 C 23.5083 42.2751 24.0871 45.9612 22.1698 48.5926 C 20.2527 51.224 16.5662 51.8029 13.9348 49.8858 Z M 23.7764 33.7963 C 21.6575 32.2523 21.1912 29.2836 22.7353 27.1647 C 24.279 25.0455 27.2477 24.5795 29.3669 26.1232 C 31.4861 27.6673 31.9521 30.636 30.4084 32.7552 C 28.8643 34.8741 25.8956 35.3404 23.7764 33.7963 Z M 34.1909 22.7682 C 32.6123 21.6179 32.2648 19.406 33.4151 17.8271 C 34.5654 16.2485 36.7775 15.9012 38.3562 17.0515 C 39.9351 18.2015 40.2823 20.4137 39.132 21.9923 C 37.9817 23.5712 35.7698 23.9185 34.1909 22.7682 Z M 44.6114 16.0251 C 43.5515 15.2529 43.3185 13.7682 44.0906 12.7083 C 44.8628 11.6484 46.3476 11.4154 47.4072 12.1876 C 48.4671 12.9597 48.7001 14.4445 47.9279 15.5041 C 47.156 16.564 45.6712 16.7973 44.6114 16.0251 Z M 53.6896 12.39 C 53.0734 11.9409 52.9379 11.0775 53.3869 10.4613 C 53.8359 9.845 54.6993 9.7095 55.3156 10.1585 C 55.9318 10.6075 56.0673 11.471 55.6183 12.0872 C 55.1693 12.7035 54.3059 12.839 53.6896 12.39" style="fill: none;"/>
    </g>
    <g style="clip-path: url(#clippath1);">
      <g transform="">
        <rect x="0" y="0" width="226.7717" height="141.7323" style="fill: url(#shading1);"/>
      </g>
    </g>
    <g transform="">
      <path d="M 80.5745 66.0719 L 80.5745 66.0719 L 71.7769 102.1963 L 62.8605 66.0719 Z Z M 75.1567 108.9729 L 75.1567 108.9729 L 91.478 41.955 C 91.546 41.5814 91.4613 41.2418 91.2234 40.953 C 90.9516 40.6474 90.646 40.4946 90.2724 40.4946 L 87.3 40.4946 L 87.0962 40.6984 L 86.7396 40.8512 L 86.5528 41.4967 L 81.7294 61.4015 L 61.7227 61.4015 L 56.8483 41.3946 C 56.7805 41.1401 56.6277 40.9192 56.4239 40.7494 C 56.2031 40.5794 55.9483 40.4946 55.6427 40.4946 L 53.1119 40.4946 C 52.7383 40.4946 52.4497 40.6304 52.2119 40.9022 L 51.872 41.2929 L 52.0081 41.955 C 52.1439 42.6515 52.2967 43.2799 52.4665 43.8403 C 52.4665 43.9084 52.4835 43.9761 52.5175 44.0442 C 52.5855 44.265 52.6365 44.5028 52.6703 44.7403 L 68.9916 111.7582 C 69.0426 112.0127 69.1954 112.2335 69.3992 112.4036 C 69.62 112.5734 69.8749 112.6582 70.1804 112.6582 L 73.3056 112.6582 C 73.8831 112.6582 74.2567 112.3526 74.4605 111.7582 L 74.4605 111.7071 C 74.6643 111.0447 74.8001 110.4163 74.9021 109.8218 C 74.9361 109.7541 74.9699 109.669 75.0039 109.5673 C 75.0379 109.3635 75.0889 109.1597 75.1567 108.9729 Z M 128.6385 95.4369 L 128.6385 95.4369 C 128.6385 98.7486 128.0441 101.3301 126.8552 103.1474 C 125.8872 104.6758 124.5796 105.8477 122.9151 106.6799 C 121.1828 107.5122 119.0937 107.9538 116.6479 108.0218 C 115.1195 108.0556 113.6421 108.0556 112.2154 108.0218 L 112.1134 108.0218 C 112.1134 108.0218 112.0963 108.0218 112.0626 108.0218 C 111.4342 108.0218 110.8227 108.0218 110.2283 108.0218 L 105.3539 108.0218 L 105.3539 45.131 L 114.5591 45.131 C 115.9858 45.0972 117.3784 45.165 118.7371 45.3348 C 119.8919 45.4368 121.1658 45.7594 122.5244 46.3031 C 123.8831 46.8465 125.0889 47.7295 126.142 48.9694 C 127.7725 50.9905 128.6045 53.7758 128.6385 57.3253 Z Z M 133.1223 99.7166 L 133.1223 99.7166 C 133.3091 98.0184 133.4109 96.5066 133.4109 95.182 L 133.4109 60.3485 C 133.4109 59.3634 133.4109 58.3614 133.4109 57.3763 C 133.4449 53.8946 132.8165 50.9394 131.5259 48.511 C 130.0311 45.6576 127.7895 43.5515 124.8004 42.1929 C 123.1529 41.4286 121.2168 40.9363 119.0426 40.6984 C 118.8729 40.6984 118.7031 40.6814 118.5333 40.6474 L 118.1426 40.5964 C 118.0069 40.5964 117.8708 40.5964 117.735 40.5964 C 116.4104 40.5286 115.2215 40.4946 114.1515 40.4946 C 113.7268 40.4946 113.3192 40.4946 112.9116 40.4946 L 112.8609 40.4946 C 112.47 40.4946 112.0626 40.4946 111.6717 40.4946 L 101.6685 40.4946 C 101.4647 40.4946 101.3119 40.5286 101.1759 40.5964 C 101.0401 40.6644 100.938 40.7324 100.8703 40.8002 L 100.5814 41.1568 L 100.5304 41.5984 L 100.5304 41.7005 C 100.5304 41.955 100.5304 42.1929 100.5304 42.3967 C 100.5304 42.4987 100.5304 42.6005 100.5304 42.6855 L 100.5304 111.5033 C 100.5304 111.8089 100.6325 112.0637 100.8193 112.2846 C 101.0231 112.4884 101.2949 112.6242 101.6175 112.6582 L 101.7193 112.6582 L 102.6706 112.6582 L 114.4573 112.6582 C 116.3083 112.6922 118.1256 112.6071 119.8749 112.4036 C 123.5265 111.8429 126.4986 110.5013 128.7913 108.3784 C 131.0842 106.1875 132.5109 103.3002 133.1223 99.7166 Z M 170.5371 95.4369 L 170.5371 95.4369 C 170.5371 98.7486 169.9427 101.3301 168.7538 103.1474 C 167.7858 104.6758 166.4782 105.8477 164.8137 106.6799 C 163.0814 107.5122 160.9923 107.9538 158.5466 108.0218 C 157.0181 108.0556 155.5407 108.0556 154.114 108.0218 L 154.012 108.0218 C 154.012 108.0218 153.995 108.0218 153.9612 108.0218 C 153.3328 108.0218 152.7214 108.0218 152.1269 108.0218 L 147.2525 108.0218 L 147.2525 45.131 L 156.4577 45.131 C 157.8844 45.0972 159.277 45.165 160.6357 45.3348 C 161.7905 45.4368 163.0644 45.7594 164.4231 46.3031 C 165.7817 46.8465 166.9876 47.7295 168.0406 48.9694 C 169.6711 50.9905 170.5031 53.7758 170.5371 57.3253 Z Z M 175.0209 99.7166 L 175.0209 99.7166 C 175.2077 98.0184 175.3095 96.5066 175.3095 95.182 L 175.3095 60.3485 C 175.3095 59.3634 175.3095 58.3614 175.3095 57.3763 C 175.3435 53.8946 174.7151 50.9394 173.4245 48.511 C 171.9298 45.6576 169.6881 43.5515 166.699 42.1929 C 165.0515 41.4286 163.1154 40.9363 160.9413 40.6984 C 160.7715 40.6984 160.6017 40.6814 160.4319 40.6474 L 160.0413 40.5964 C 159.9055 40.5964 159.7694 40.5964 159.6336 40.5964 C 158.309 40.5286 157.1202 40.4946 156.0501 40.4946 C 155.6254 40.4946 155.2178 40.4946 154.8102 40.4946 L 154.7595 40.4946 C 154.3686 40.4946 153.9612 40.4946 153.5703 40.4946 L 143.5671 40.4946 C 143.3633 40.4946 143.2106 40.5286 143.0745 40.5964 C 142.9387 40.6644 142.8367 40.7324 142.7689 40.8002 L 142.4801 41.1568 L 142.429 41.5984 L 142.429 41.7005 C 142.429 41.955 142.429 42.1929 142.429 42.3967 C 142.429 42.4987 142.429 42.6005 142.429 42.6855 L 142.429 111.5033 C 142.429 111.8089 142.5311 112.0637 142.7179 112.2846 C 142.9217 112.4884 143.1935 112.6242 143.5161 112.6582 L 143.6179 112.6582 L 144.5692 112.6582 L 156.3559 112.6582 C 158.207 112.6922 160.0243 112.6071 161.7735 112.4036 C 165.4251 111.8429 168.3972 110.5013 170.6899 108.3784 C 172.9828 106.1875 174.4095 103.3002 175.0209 99.7166 Z M 209.7014 66.0719 L 209.7014 66.0719 L 200.9038 102.1963 L 191.9874 66.0719 Z Z M 204.2836 108.9729 L 204.2836 108.9729 L 220.6049 41.955 C 220.6729 41.5814 220.5882 41.2418 220.3503 40.953 C 220.0785 40.6474 219.7729 40.4946 219.3993 40.4946 L 216.4269 40.4946 L 216.2231 40.6984 L 215.8665 40.8512 L 215.6797 41.4967 L 210.8563 61.4015 L 190.8496 61.4015 L 185.9751 41.3946 C 185.9074 41.1401 185.7546 40.9192 185.5508 40.7494 C 185.33 40.5794 185.0751 40.4946 184.7696 40.4946 L 182.2388 40.4946 C 181.8652 40.4946 181.5766 40.6304 181.3388 40.9022 L 180.9989 41.2929 L 181.135 41.955 C 181.2708 42.6515 181.4236 43.2799 181.5934 43.8403 C 181.5934 43.9084 181.6104 43.9761 181.6444 44.0442 C 181.7124 44.265 181.7634 44.5028 181.7972 44.7403 L 198.1185 111.7582 C 198.1695 112.0127 198.3223 112.2335 198.5261 112.4036 C 198.7469 112.5734 199.0018 112.6582 199.3073 112.6582 L 202.4325 112.6582 C 203.01 112.6582 203.3836 112.3526 203.5874 111.7582 L 203.5874 111.7071 C 203.7912 111.0447 203.927 110.4163 204.029 109.8218 C 204.063 109.7541 204.0968 109.669 204.1308 109.5673 C 204.1648 109.3635 204.2158 109.1597 204.2836 108.9729" style="fill-opacity: 1; fill: rgb(64, 64, 64);"/>
    </g>
  </g>
</svg>